<svg width="578" height="208" viewBox="0 0 578 208" fill="none" xmlns="http://www.w3.org/2000/svg">
<path d="M198.188 126.625C195.667 126.625 193.427 126.542 191.469 126.375C189.531 126.229 187.823 126 186.344 125.688L187.344 117.594C189.969 117.927 192.177 118.177 193.969 118.344C195.76 118.51 197.167 118.594 198.188 118.594C201.021 118.594 203.073 118.406 204.344 118.031C205.615 117.635 206.25 117.01 206.25 116.156C206.25 115.656 206.094 115.26 205.781 114.969C205.469 114.677 204.969 114.427 204.281 114.219L193.5 111.094C191.292 110.448 189.625 109.469 188.5 108.156C187.396 106.823 186.844 105.042 186.844 102.812C186.844 99.25 188.344 96.6042 191.344 94.875C194.344 93.125 198.896 92.25 205 92.25C206.417 92.25 207.885 92.3021 209.406 92.4062C210.948 92.5104 212.573 92.6667 214.281 92.875L213.375 100.719C211.479 100.552 209.823 100.438 208.406 100.375C206.99 100.312 205.792 100.281 204.812 100.281C201.542 100.281 199.167 100.469 197.688 100.844C196.229 101.198 195.5 101.792 195.5 102.625C195.5 103.146 195.646 103.552 195.938 103.844C196.25 104.115 196.729 104.344 197.375 104.531L206.656 107.094C209.51 107.865 211.635 108.99 213.031 110.469C214.448 111.927 215.156 113.833 215.156 116.188C215.156 119.708 213.76 122.333 210.969 124.062C208.177 125.771 203.917 126.625 198.188 126.625ZM229.188 114.219V106.188H232.938C235.417 106.188 237.448 105.76 239.031 104.906C240.635 104.031 241.896 102.625 242.812 100.688C243.729 98.7292 244.396 96.125 244.812 92.875H253.531C252.635 100.042 250.615 105.396 247.469 108.938C244.323 112.458 240 114.219 234.5 114.219H229.188ZM223.969 126V79.125H232.438V126H223.969ZM245.625 126L237.5 109.875L245.062 107.312L255.656 126H245.625ZM273.719 126V94.75H282.156V126H273.719ZM261.469 126V118.188H274.344V126H261.469ZM281.531 126V118.188H291.969V126H281.531ZM263.344 100.688V92.875H282.156V100.688H263.344ZM277.562 88.4062C275.958 88.4062 274.656 87.9062 273.656 86.9062C272.656 85.9062 272.156 84.6042 272.156 83C272.156 81.3958 272.656 80.0938 273.656 79.0938C274.656 78.0938 275.958 77.5938 277.562 77.5938C279.167 77.5938 280.469 78.0938 281.469 79.0938C282.469 80.0938 282.969 81.3958 282.969 83C282.969 84.6042 282.469 85.9062 281.469 86.9062C280.469 87.9062 279.167 88.4062 277.562 88.4062ZM296.312 141L296 133.656L301.719 133.031C303.677 132.802 305.354 132.281 306.75 131.469C308.146 130.656 309.333 129.438 310.312 127.812C311.312 126.208 312.177 124.104 312.906 121.5L320.906 92.875H329.875L320.562 123.062C319.312 127.042 317.875 130.24 316.25 132.656C314.625 135.094 312.698 136.906 310.469 138.094C308.24 139.302 305.573 140.062 302.469 140.375L296.312 141ZM306.812 126L295.688 92.875H304.656L312.875 118.812H314.375V126H306.812ZM353.375 126.625C347.646 126.625 343.219 125.146 340.094 122.188C336.969 119.208 335.406 114.938 335.406 109.375C335.406 103.958 336.729 99.75 339.375 96.75C342.042 93.75 345.792 92.25 350.625 92.25C355.354 92.25 359.01 93.6354 361.594 96.4062C364.177 99.1771 365.469 103.208 365.469 108.5C365.469 110 365.406 111.427 365.281 112.781H340.969V106.906H357.156C357.156 104.677 356.583 102.969 355.438 101.781C354.312 100.594 352.729 100 350.688 100C348.479 100 346.76 100.792 345.531 102.375C344.323 103.938 343.719 106.167 343.719 109.062C343.719 112.188 344.615 114.562 346.406 116.188C348.219 117.812 350.792 118.625 354.125 118.625C355.625 118.625 357.104 118.552 358.562 118.406C360.021 118.24 361.51 118.021 363.031 117.75L363.844 125.75C361.719 126.125 359.781 126.365 358.031 126.469C356.281 126.573 354.729 126.625 353.375 126.625ZM390.875 126.625C385.146 126.625 380.719 125.146 377.594 122.188C374.469 119.208 372.906 114.938 372.906 109.375C372.906 103.958 374.229 99.75 376.875 96.75C379.542 93.75 383.292 92.25 388.125 92.25C392.854 92.25 396.51 93.6354 399.094 96.4062C401.677 99.1771 402.969 103.208 402.969 108.5C402.969 110 402.906 111.427 402.781 112.781H378.469V106.906H394.656C394.656 104.677 394.083 102.969 392.938 101.781C391.812 100.594 390.229 100 388.188 100C385.979 100 384.26 100.792 383.031 102.375C381.823 103.938 381.219 106.167 381.219 109.062C381.219 112.188 382.115 114.562 383.906 116.188C385.719 117.812 388.292 118.625 391.625 118.625C393.125 118.625 394.604 118.552 396.062 118.406C397.521 118.24 399.01 118.021 400.531 117.75L401.344 125.75C399.219 126.125 397.281 126.365 395.531 126.469C393.781 126.573 392.229 126.625 390.875 126.625ZM409.5 131.938L433.719 75.6875H442.312L418.094 131.938H409.5ZM458.438 126.625C455.292 126.625 452.854 125.594 451.125 123.531C449.396 121.448 448.531 118.521 448.531 114.75V92.875H457V112.656C457 114.552 457.427 116.021 458.281 117.062C459.156 118.083 460.354 118.594 461.875 118.594C463.854 118.594 465.344 117.833 466.344 116.312C467.365 114.771 467.875 112.198 467.875 108.594L469.562 119.625H467C466.479 121.875 465.469 123.604 463.969 124.812C462.469 126.021 460.625 126.625 458.438 126.625ZM468.438 126.312L467.875 118.375V112.562H476.344V118.438L480.906 119.125V126L468.438 126.312ZM467.875 116.625V92.875H476.344V114.75L467.875 116.625ZM498.719 126V94.75H507.156V126H498.719ZM486.469 126V118.188H499.344V126H486.469ZM506.531 126V118.188H516.969V126H506.531ZM488.344 100.688V92.875H507.156V100.688H488.344ZM502.562 88.4062C500.958 88.4062 499.656 87.9062 498.656 86.9062C497.656 85.9062 497.156 84.6042 497.156 83C497.156 81.3958 497.656 80.0938 498.656 79.0938C499.656 78.0938 500.958 77.5938 502.562 77.5938C504.167 77.5938 505.469 78.0938 506.469 79.0938C507.469 80.0938 507.969 81.3958 507.969 83C507.969 84.6042 507.469 85.9062 506.469 86.9062C505.469 87.9062 504.167 88.4062 502.562 88.4062Z" fill="url(#paint0_linear_94_14)"/>
<path d="M68.9375 86.3462C68.9375 86.3462 68.9375 131.204 68.9375 137.008C68.9375 142.813 76.933 154.663 90.4339 154.531C103.935 154.399 111.274 142.023 111.274 137.008C111.274 131.993 111.274 91.7551 111.274 91.7551L125.955 81.044V150.308C125.955 150.308 127.397 154.531 131.985 154.531C136.572 154.531 139.062 150.308 139.062 150.308V53.47L104.983 79.1966L68.9375 53.47V69.0382L98.9536 91.7551V131.641C98.9536 131.641 98.9536 139.161 90.4339 139.689C81.9139 140.217 82.8314 131.641 82.8314 131.641V96.3731L68.9375 86.3462Z" stroke="url(#paint1_linear_94_14)" stroke-width="8" stroke-linejoin="round"/>
<defs>
<linearGradient id="paint0_linear_94_14" x1="182" y1="104" x2="520" y2="104" gradientUnits="userSpaceOnUse">
<stop stop-color="#B7D7FE"/>
<stop offset="0.5" stop-color="#98C8FD"/>
<stop offset="1" stop-color="#63A7FA"/>
</linearGradient>
<linearGradient id="paint1_linear_94_14" x1="68.9375" y1="154.532" x2="139.062" y2="53.47" gradientUnits="userSpaceOnUse">
<stop stop-color="#BFDBFE"/>
<stop offset="0.5" stop-color="#93C5FD"/>
<stop offset="1" stop-color="#60A5FA"/>
</linearGradient>
</defs>
</svg>
